name Run_200 02_newCOP3_v24.mot																		
datacolumns 19																		
datarows 111																		
range 4.185 4.295																		
endheader																		
                time	   ground_force_vx	   ground_force_vy	 ground_force_vz	   ground_force_px	   ground_force_py	   ground_force_pz	   l_ground_force_vx	  l_ground_force_vy	   l_ground_force_vz	   l_ground_force_px	   l_ground_force_py	   l_ground_force_pz	   ground_torque_x	   ground_torque_y	  ground_torque_z	   l_ground_torque_x	  l_ground_torque_y	 l_ground_torque_z
4.185	-25.169819	1540.800415	13.487125	0.901327	0	-0.347551	0	0	0	0	0	0	0	2.399929	0	0	0	0
4.186	-23.481054	1539.910645	13.530043	0.900087	0	-0.347518	0	0	0	0	0	0	0	2.378187	0	0	0	0
4.187	-21.778019	1538.753784	13.573573	0.898852	0	-0.347486	0	0	0	0	0	0	0	2.353427	0	0	0	0
4.188	-20.061127	1537.330444	13.618334	0.897622	0	-0.347454	0	0	0	0	0	0	0	2.325678	0	0	0	0
4.189	-18.331038	1535.640747	13.665054	0.896396	0	-0.347423	0	0	0	0	0	0	0	2.294972	0	0	0	0
4.19	-16.588667	1533.685181	13.714563	0.895175	0	-0.347393	0	0	0	0	0	0	0	2.26134	0	0	0	0
4.191	-14.835165	1531.463989	13.767774	0.893958	0	-0.347364	0	0	0	0	0	0	0	2.224813	0	0	0	0
4.192	-13.071896	1528.977661	13.825668	0.892747	0	-0.347336	0	0	0	0	0	0	0	2.185424	0	0	0	0
4.193	-11.300395	1526.226807	13.889278	0.89154	0	-0.347308	0	0	0	0	0	0	0	2.143205	0	0	0	0
4.194	-9.522326	1523.212036	13.959672	0.890337	0	-0.347281	0	0	0	0	0	0	0	2.098191	0	0	0	0
4.195	-7.739422	1519.934326	14.037932	0.88914	0	-0.347255	0	0	0	0	0	0	0	2.050415	0	0	0	0
4.196	-5.953431	1516.394775	14.12514	0.887947	0	-0.34723	0	0	0	0	0	0	0	1.999914	0	0	0	0
4.197	-4.166059	1512.594849	14.222356	0.886759	0	-0.347206	0	0	0	0	0	0	0	1.946725	0	0	0	0
4.198	-2.378914	1508.536499	14.330604	0.885576	0	-0.347183	0	0	0	0	0	0	0	1.890886	0	0	0	0
4.199	-0.593454	1504.22168	14.450854	0.884398	0	-0.347162	0	0	0	0	0	0	0	1.832439	0	0	0	0
4.2	1.18905	1499.65332	14.584012	0.883224	0	-0.347142	0	0	0	0	0	0	0	1.771425	0	0	0	0
4.201	2.967557	1494.834473	14.730904	0.882055	0	-0.347124	0	0	0	0	0	0	0	1.70789	0	0	0	0
4.202	4.741273	1489.768677	14.892262	0.880891	0	-0.347107	0	0	0	0	0	0	0	1.64188	0	0	0	0
4.203	6.509676	1484.460327	15.068725	0.879732	0	-0.347093	0	0	0	0	0	0	0	1.573447	0	0	0	0
4.204	8.272517	1478.914063	15.260824	0.878577	0	-0.347081	0	0	0	0	0	0	0	1.502643	0	0	0	0
4.205	10.029823	1473.135254	15.468985	0.877427	0	-0.347071	0	0	0	0	0	0	0	1.429526	0	0	0	0
4.206	11.781896	1467.129639	15.693522	0.876282	0	-0.347063	0	0	0	0	0	0	0	1.354155	0	0	0	0
4.207	13.529294	1460.903564	15.934648	0.875141	0	-0.347058	0	0	0	0	0	0	0	1.276596	0	0	0	0
4.208	15.272829	1454.463623	16.192463	0.874004	0	-0.347056	0	0	0	0	0	0	0	1.196917	0	0	0	0
4.209	17.013542	1447.816895	16.466978	0.872871	0	-0.347057	0	0	0	0	0	0	0	1.11519	0	0	0	0
4.21	18.752697	1440.970581	16.758104	0.871741	0	-0.347061	0	0	0	0	0	0	0	1.031494	0	0	0	0
4.211	20.491749	1433.932251	17.065674	0.870615	0	-0.347068	0	0	0	0	0	0	0	0.94591	0	0	0	0
4.212	22.232336	1426.709229	17.389442	0.869492	0	-0.347079	0	0	0	0	0	0	0	0.858526	0	0	0	0
4.213	23.976255	1419.309082	17.729101	0.868371	0	-0.347092	0	0	0	0	0	0	0	0.769434	0	0	0	0
4.214	25.725422	1411.739136	18.084278	0.867251	0	-0.347109	0	0	0	0	0	0	0	0.678731	0	0	0	0
4.215	27.48185	1404.00647	18.454559	0.866133	0	-0.34713	0	0	0	0	0	0	0	0.58652	0	0	0	0
4.216	29.247599	1396.11792	18.839481	0.865014	0	-0.347154	0	0	0	0	0	0	0	0.492909	0	0	0	0
4.217	31.024731	1388.080078	19.238548	0.863895	0	-0.347181	0	0	0	0	0	0	0	0.39801	0	0	0	0
4.218	32.81525	1379.899048	19.651226	0.862775	0	-0.347212	0	0	0	0	0	0	0	0.301943	0	0	0	0
4.219	34.621037	1371.580322	20.076958	0.861652	0	-0.347246	0	0	0	0	0	0	0	0.20483	0	0	0	0
4.22	36.44379	1363.129395	20.515146	0.860526	0	-0.347283	0	0	0	0	0	0	0	0.106801	0	0	0	0
4.221	38.284943	1354.550903	20.965176	0.859395	0	-0.347323	0	0	0	0	0	0	0	0.007989	0	0	0	0
4.222	40.145607	1345.849243	21.426386	0.858259	0	-0.347367	0	0	0	0	0	0	0	-0.091468	0	0	0	0
4.223	42.026501	1337.02832	21.89809	0.857116	0	-0.347413	0	0	0	0	0	0	0	-0.191427	0	0	0	0
4.224	43.927906	1328.091675	22.379557	0.855967	0	-0.347461	0	0	0	0	0	0	0	-0.29174	0	0	0	0
4.225	45.849613	1319.04248	22.870007	0.85481	0	-0.347513	0	0	0	0	0	0	0	-0.392255	0	0	0	0
4.226	47.790901	1309.883301	23.368616	0.853644	0	-0.347566	0	0	0	0	0	0	0	-0.492819	0	0	0	0
4.227	49.750519	1300.616943	23.874502	0.852469	0	-0.347622	0	0	0	0	0	0	0	-0.593272	0	0	0	0
4.228	51.7267	1291.245483	24.386724	0.851285	0	-0.347681	0	0	0	0	0	0	0	-0.693453	0	0	0	0
4.229	53.717163	1281.770874	24.90428	0.850091	0	-0.347742	0	0	0	0	0	0	0	-0.793197	0	0	0	0
4.23	55.719173	1272.195068	25.426102	0.848887	0	-0.347805	0	0	0	0	0	0	0	-0.892338	0	0	0	0
4.231	57.729553	1262.519531	25.951056	0.847672	0	-0.34787	0	0	0	0	0	0	0	-0.990709	0	0	0	0
4.232	59.744759	1252.74585	26.477945	0.846447	0	-0.347938	0	0	0	0	0	0	0	-1.088139	0	0	0	0
4.233	61.760929	1242.875488	27.00551	0.845212	0	-0.348008	0	0	0	0	0	0	0	-1.18446	0	0	0	0
4.234	63.773949	1232.909668	27.532427	0.843968	0	-0.34808	0	0	0	0	0	0	0	-1.2795	0	0	0	0
4.235	65.779495	1222.849731	28.057322	0.842713	0	-0.348155	0	0	0	0	0	0	0	-1.373092	0	0	0	0
4.236	67.773117	1212.696899	28.578766	0.84145	0	-0.348232	0	0	0	0	0	0	0	-1.465065	0	0	0	0
4.237	69.750244	1202.452515	29.095293	0.840177	0	-0.348312	0	0	0	0	0	0	0	-1.555254	0	0	0	0
4.238	71.706268	1192.117554	29.605396	0.838897	0	-0.348394	0	0	0	0	0	0	0	-1.643493	0	0	0	0
4.239	73.636581	1181.693481	30.10754	0.837609	0	-0.348478	0	0	0	0	0	0	0	-1.729622	0	0	0	0
4.24	75.536575	1171.181274	30.60017	0.836315	0	-0.348565	0	0	0	0	0	0	0	-1.813482	0	0	0	0
4.241	77.401741	1160.582397	31.08172	0.835015	0	-0.348653	0	0	0	0	0	0	0	-1.894918	0	0	0	0
4.242	79.227638	1149.898071	31.550615	0.83371	0	-0.348744	0	0	0	0	0	0	0	-1.973783	0	0	0	0
4.243	81.009995	1139.129639	32.005287	0.8324	0	-0.348836	0	0	0	0	0	0	0	-2.04993	0	0	0	0
4.244	82.744728	1128.278198	32.444176	0.831088	0	-0.348931	0	0	0	0	0	0	0	-2.123224	0	0	0	0
4.245	84.428001	1117.345459	32.865738	0.829773	0	-0.349027	0	0	0	0	0	0	0	-2.193531	0	0	0	0
4.246	86.05629	1106.332886	33.268459	0.828456	0	-0.349125	0	0	0	0	0	0	0	-2.260728	0	0	0	0
4.247	87.626434	1095.242065	33.650856	0.827139	0	-0.349224	0	0	0	0	0	0	0	-2.324697	0	0	0	0
4.248	89.135712	1084.074951	34.01149	0.825821	0	-0.349324	0	0	0	0	0	0	0	-2.38533	0	0	0	0
4.249	90.581924	1072.833496	34.348965	0.824503	0	-0.349426	0	0	0	0	0	0	0	-2.442527	0	0	0	0
4.25	91.963402	1061.52002	34.661945	0.823186	0	-0.349529	0	0	0	0	0	0	0	-2.496195	0	0	0	0
4.251	93.279091	1050.137207	34.949169	0.821869	0	-0.349632	0	0	0	0	0	0	0	-2.546253	0	0	0	0
4.252	94.52858	1038.687988	35.209442	0.820553	0	-0.349737	0	0	0	0	0	0	0	-2.592628	0	0	0	0
4.253	95.71209	1027.175537	35.441658	0.819237	0	-0.349843	0	0	0	0	0	0	0	-2.63526	0	0	0	0
4.254	96.830467	1015.603638	35.644814	0.817921	0	-0.349949	0	0	0	0	0	0	0	-2.674095	0	0	0	0
4.255	97.885178	1003.976257	35.818012	0.816605	0	-0.350056	0	0	0	0	0	0	0	-2.709093	0	0	0	0
4.256	98.878197	992.297729	35.96048	0.815287	0	-0.350164	0	0	0	0	0	0	0	-2.740222	0	0	0	0
4.257	99.811989	980.572815	36.071568	0.813967	0	-0.350272	0	0	0	0	0	0	0	-2.767465	0	0	0	0
4.258	100.689369	968.806458	36.150787	0.812643	0	-0.35038	0	0	0	0	0	0	0	-2.79081	0	0	0	0
4.259	101.51342	957.003784	36.197792	0.811315	0	-0.350489	0	0	0	0	0	0	0	-2.810261	0	0	0	0
4.26	102.287338	945.170288	36.212406	0.809982	0	-0.350598	0	0	0	0	0	0	0	-2.825831	0	0	0	0
4.261	103.014351	933.311279	36.194633	0.808642	0	-0.350707	0	0	0	0	0	0	0	-2.837543	0	0	0	0
4.262	103.697578	921.432434	36.144653	0.807295	0	-0.350817	0	0	0	0	0	0	0	-2.845432	0	0	0	0
4.263	104.33992	909.539185	36.062828	0.805939	0	-0.350925	0	0	0	0	0	0	0	-2.849543	0	0	0	0
4.264	104.943962	897.637085	35.949715	0.804575	0	-0.351034	0	0	0	0	0	0	0	-2.849931	0	0	0	0
4.265	105.511894	885.731445	35.806057	0.8032	0	-0.351142	0	0	0	0	0	0	0	-2.84666	0	0	0	0
4.266	106.045441	873.827759	35.632778	0.801815	0	-0.351249	0	0	0	0	0	0	0	-2.839805	0	0	0	0
4.267	106.545837	861.931091	35.430984	0.800419	0	-0.351356	0	0	0	0	0	0	0	-2.829449	0	0	0	0
4.268	107.013802	850.046631	35.201935	0.799013	0	-0.35146	0	0	0	0	0	0	0	-2.815686	0	0	0	0
4.269	107.449532	838.179321	34.947056	0.797597	0	-0.351564	0	0	0	0	0	0	0	-2.798614	0	0	0	0
4.27	107.852737	826.334167	34.667896	0.79617	0	-0.351665	0	0	0	0	0	0	0	-2.778342	0	0	0	0
4.271	108.222679	814.51593	34.366123	0.794734	0	-0.351763	0	0	0	0	0	0	0	-2.754986	0	0	0	0
4.272	108.558189	802.729309	34.043499	0.793289	0	-0.351859	0	0	0	0	0	0	0	-2.728667	0	0	0	0
4.273	108.857773	790.979004	33.701851	0.791836	0	-0.35195	0	0	0	0	0	0	0	-2.699513	0	0	0	0
4.274	109.119614	779.269531	33.343048	0.790376	0	-0.352038	0	0	0	0	0	0	0	-2.667656	0	0	0	0
4.275	109.341667	767.605408	32.968975	0.78891	0	-0.35212	0	0	0	0	0	0	0	-2.633235	0	0	0	0
4.276	109.521721	755.990967	32.581505	0.787439	0	-0.352197	0	0	0	0	0	0	0	-2.596391	0	0	0	0
4.277	109.65741	744.430481	32.182472	0.785964	0	-0.352267	0	0	0	0	0	0	0	-2.557269	0	0	0	0
4.278	109.746315	732.928101	31.773642	0.784486	0	-0.35233	0	0	0	0	0	0	0	-2.516018	0	0	0	0
4.279	109.78598	721.487793	31.356697	0.783008	0	-0.352386	0	0	0	0	0	0	0	-2.472788	0	0	0	0
4.28	109.773956	710.113281	30.93321	0.781528	0	-0.352433	0	0	0	0	0	0	0	-2.427731	0	0	0	0
4.281	109.707878	698.808105	30.504627	0.78005	0	-0.352472	0	0	0	0	0	0	0	-2.381	0	0	0	0
4.282	109.58548	687.575623	30.072245	0.778574	0	-0.352501	0	0	0	0	0	0	0	-2.332747	0	0	0	0
4.283	109.404694	676.418884	29.637213	0.777102	0	-0.35252	0	0	0	0	0	0	0	-2.283126	0	0	0	0
4.284	109.163651	665.340698	29.200514	0.775633	0	-0.35253	0	0	0	0	0	0	0	-2.232289	0	0	0	0
4.285	108.860794	654.343628	28.76297	0.774171	0	-0.35253	0	0	0	0	0	0	0	-2.180387	0	0	0	0
4.286	108.494919	643.429932	28.325237	0.772714	0	-0.35252	0	0	0	0	0	0	0	-2.127569	0	0	0	0
4.287	108.065247	632.601501	27.88781	0.771265	0	-0.3525	0	0	0	0	0	0	0	-2.073984	0	0	0	0
4.288	107.571465	621.860107	27.451036	0.769824	0	-0.352471	0	0	0	0	0	0	0	-2.019775	0	0	0	0
4.289	107.013786	611.207214	27.015121	0.768391	0	-0.352433	0	0	0	0	0	0	0	-1.965083	0	0	0	0
4.29	106.39299	600.644043	26.580151	0.766968	0	-0.352387	0	0	0	0	0	0	0	-1.910049	0	0	0	0
4.291	105.710411	590.171692	26.146101	0.765554	0	-0.352333	0	0	0	0	0	0	0	-1.854805	0	0	0	0
4.292	104.967957	579.791077	25.712862	0.764149	0	-0.352273	0	0	0	0	0	0	0	-1.799483	0	0	0	0
4.293	104.168068	569.502869	25.280256	0.762755	0	-0.352206	0	0	0	0	0	0	0	-1.74421	0	0	0	0
4.294	103.31366	559.3078	24.848064	0.761371	0	-0.352135	0	0	0	0	0	0	0	-1.689108	0	0	0	0
4.295	102.408058	549.206543	24.416042	0.759996	0	-0.352059	0	0	0	0	0	0	0	-1.634293	0	0	0	0
